<mxfile host="app.diagrams.net" modified="2023-09-20T04:30:58.243Z" agent="Mozilla/5.0 (Macintosh; Intel Mac OS X 10_15_7) AppleWebKit/605.1.15 (KHTML, like Gecko) Version/16.5 Safari/605.1.15" etag="ur09-SRTKZycIoMcROQX" version="21.7.5" type="github">
  <diagram name="Page-1" id="23DygeECu5ZJedeDuBlC">
    <mxGraphModel dx="619" dy="634" grid="1" gridSize="10" guides="1" tooltips="1" connect="1" arrows="1" fold="1" page="1" pageScale="1" pageWidth="827" pageHeight="1169" math="0" shadow="0">
      <root>
        <mxCell id="0" />
        <mxCell id="1" parent="0" />
        <mxCell id="obj-AQHQgSeHbVbX9h_X-15" value="" style="rounded=0;whiteSpace=wrap;html=1;" vertex="1" parent="1">
          <mxGeometry x="70" y="210" width="300" height="290" as="geometry" />
        </mxCell>
        <mxCell id="obj-AQHQgSeHbVbX9h_X-2" value="Water bottle" style="text;html=1;strokeColor=none;fillColor=none;align=center;verticalAlign=middle;whiteSpace=wrap;rounded=0;fontStyle=1;fontSize=15;" vertex="1" parent="1">
          <mxGeometry x="165" y="210" width="110" height="30" as="geometry" />
        </mxCell>
        <mxCell id="obj-AQHQgSeHbVbX9h_X-3" value="" style="rounded=0;whiteSpace=wrap;html=1;" vertex="1" parent="1">
          <mxGeometry x="170" y="260" width="160" height="80" as="geometry" />
        </mxCell>
        <mxCell id="obj-AQHQgSeHbVbX9h_X-4" value="Cap" style="text;html=1;strokeColor=none;fillColor=none;align=center;verticalAlign=middle;whiteSpace=wrap;rounded=0;" vertex="1" parent="1">
          <mxGeometry x="172" y="285" width="60" height="30" as="geometry" />
        </mxCell>
        <mxCell id="obj-AQHQgSeHbVbX9h_X-6" value="Open" style="ellipse;whiteSpace=wrap;html=1;" vertex="1" parent="1">
          <mxGeometry x="246" y="270.66" width="70" height="26.67" as="geometry" />
        </mxCell>
        <mxCell id="obj-AQHQgSeHbVbX9h_X-14" style="rounded=0;orthogonalLoop=1;jettySize=auto;html=1;" edge="1" parent="1" source="obj-AQHQgSeHbVbX9h_X-7" target="obj-AQHQgSeHbVbX9h_X-9">
          <mxGeometry relative="1" as="geometry" />
        </mxCell>
        <mxCell id="obj-AQHQgSeHbVbX9h_X-29" style="rounded=0;orthogonalLoop=1;jettySize=auto;html=1;exitX=1;exitY=0.5;exitDx=0;exitDy=0;entryX=0;entryY=0.5;entryDx=0;entryDy=0;startArrow=classic;startFill=1;endArrow=none;endFill=0;" edge="1" parent="1" source="obj-AQHQgSeHbVbX9h_X-7" target="obj-AQHQgSeHbVbX9h_X-21">
          <mxGeometry relative="1" as="geometry" />
        </mxCell>
        <mxCell id="obj-AQHQgSeHbVbX9h_X-7" value="Close" style="ellipse;whiteSpace=wrap;html=1;" vertex="1" parent="1">
          <mxGeometry x="246" y="304" width="70" height="26.67" as="geometry" />
        </mxCell>
        <mxCell id="obj-AQHQgSeHbVbX9h_X-13" style="rounded=0;orthogonalLoop=1;jettySize=auto;html=1;entryX=1;entryY=0.5;entryDx=0;entryDy=0;" edge="1" parent="1" source="obj-AQHQgSeHbVbX9h_X-9" target="obj-AQHQgSeHbVbX9h_X-6">
          <mxGeometry relative="1" as="geometry" />
        </mxCell>
        <mxCell id="obj-AQHQgSeHbVbX9h_X-9" value="Drinking" style="ellipse;whiteSpace=wrap;html=1;aspect=fixed;" vertex="1" parent="1">
          <mxGeometry x="430" y="260" width="80" height="80" as="geometry" />
        </mxCell>
        <mxCell id="obj-AQHQgSeHbVbX9h_X-24" value="" style="rounded=0;whiteSpace=wrap;html=1;" vertex="1" parent="1">
          <mxGeometry x="90" y="350.01" width="250" height="109.99" as="geometry" />
        </mxCell>
        <mxCell id="obj-AQHQgSeHbVbX9h_X-12" style="rounded=0;orthogonalLoop=1;jettySize=auto;html=1;entryX=1;entryY=0.5;entryDx=0;entryDy=0;" edge="1" parent="1" source="obj-AQHQgSeHbVbX9h_X-11" target="obj-AQHQgSeHbVbX9h_X-9">
          <mxGeometry relative="1" as="geometry" />
        </mxCell>
        <mxCell id="obj-AQHQgSeHbVbX9h_X-11" value="End&lt;br&gt;User" style="rounded=0;whiteSpace=wrap;html=1;" vertex="1" parent="1">
          <mxGeometry x="580" y="274" width="120" height="60" as="geometry" />
        </mxCell>
        <mxCell id="obj-AQHQgSeHbVbX9h_X-30" style="rounded=0;orthogonalLoop=1;jettySize=auto;html=1;exitX=1;exitY=0.5;exitDx=0;exitDy=0;startArrow=classic;startFill=1;" edge="1" parent="1" source="obj-AQHQgSeHbVbX9h_X-18">
          <mxGeometry relative="1" as="geometry">
            <mxPoint x="430" y="410" as="targetPoint" />
          </mxGeometry>
        </mxCell>
        <mxCell id="obj-AQHQgSeHbVbX9h_X-18" value="" style="rounded=0;whiteSpace=wrap;html=1;" vertex="1" parent="1">
          <mxGeometry x="170" y="360" width="160" height="80" as="geometry" />
        </mxCell>
        <mxCell id="obj-AQHQgSeHbVbX9h_X-19" value="Insulator" style="text;html=1;strokeColor=none;fillColor=none;align=center;verticalAlign=middle;whiteSpace=wrap;rounded=0;" vertex="1" parent="1">
          <mxGeometry x="170" y="385" width="60" height="30" as="geometry" />
        </mxCell>
        <mxCell id="obj-AQHQgSeHbVbX9h_X-21" value="Containing" style="ellipse;whiteSpace=wrap;html=1;aspect=fixed;" vertex="1" parent="1">
          <mxGeometry x="430" y="370" width="80" height="80" as="geometry" />
        </mxCell>
        <mxCell id="obj-AQHQgSeHbVbX9h_X-22" value="Cool" style="ellipse;whiteSpace=wrap;html=1;" vertex="1" parent="1">
          <mxGeometry x="246" y="370" width="70" height="26.67" as="geometry" />
        </mxCell>
        <mxCell id="obj-AQHQgSeHbVbX9h_X-23" value="Warm" style="ellipse;whiteSpace=wrap;html=1;" vertex="1" parent="1">
          <mxGeometry x="246" y="403.34000000000003" width="70" height="26.67" as="geometry" />
        </mxCell>
        <mxCell id="obj-AQHQgSeHbVbX9h_X-25" value="Body" style="text;html=1;strokeColor=none;fillColor=none;align=center;verticalAlign=middle;whiteSpace=wrap;rounded=0;" vertex="1" parent="1">
          <mxGeometry x="100" y="385" width="60" height="30" as="geometry" />
        </mxCell>
        <mxCell id="obj-AQHQgSeHbVbX9h_X-31" style="edgeStyle=orthogonalEdgeStyle;rounded=0;orthogonalLoop=1;jettySize=auto;html=1;entryX=0.5;entryY=1;entryDx=0;entryDy=0;endArrow=doubleBlock;endFill=0;" edge="1" parent="1" source="obj-AQHQgSeHbVbX9h_X-26" target="obj-AQHQgSeHbVbX9h_X-15">
          <mxGeometry relative="1" as="geometry" />
        </mxCell>
        <mxCell id="obj-AQHQgSeHbVbX9h_X-26" value="Weight [kg]&lt;br&gt;0.5~1" style="rounded=0;whiteSpace=wrap;html=1;" vertex="1" parent="1">
          <mxGeometry x="51" y="540" width="100" height="50" as="geometry" />
        </mxCell>
        <mxCell id="obj-AQHQgSeHbVbX9h_X-32" style="edgeStyle=orthogonalEdgeStyle;rounded=0;orthogonalLoop=1;jettySize=auto;html=1;endArrow=doubleBlock;endFill=0;" edge="1" parent="1" source="obj-AQHQgSeHbVbX9h_X-27">
          <mxGeometry relative="1" as="geometry">
            <mxPoint x="219" y="500" as="targetPoint" />
          </mxGeometry>
        </mxCell>
        <mxCell id="obj-AQHQgSeHbVbX9h_X-27" value="Recyclable&lt;br&gt;material" style="rounded=0;whiteSpace=wrap;html=1;" vertex="1" parent="1">
          <mxGeometry x="169" y="540" width="100" height="50" as="geometry" />
        </mxCell>
        <mxCell id="obj-AQHQgSeHbVbX9h_X-33" style="edgeStyle=orthogonalEdgeStyle;rounded=0;orthogonalLoop=1;jettySize=auto;html=1;endArrow=doubleBlock;endFill=0;" edge="1" parent="1" source="obj-AQHQgSeHbVbX9h_X-28">
          <mxGeometry relative="1" as="geometry">
            <mxPoint x="220" y="500" as="targetPoint" />
            <Array as="points">
              <mxPoint x="339" y="520" />
              <mxPoint x="221" y="520" />
            </Array>
          </mxGeometry>
        </mxCell>
        <mxCell id="obj-AQHQgSeHbVbX9h_X-28" value="Cost" style="rounded=0;whiteSpace=wrap;html=1;" vertex="1" parent="1">
          <mxGeometry x="289" y="540" width="100" height="50" as="geometry" />
        </mxCell>
        <mxCell id="obj-AQHQgSeHbVbX9h_X-35" style="edgeStyle=orthogonalEdgeStyle;rounded=0;orthogonalLoop=1;jettySize=auto;html=1;entryX=0.5;entryY=0;entryDx=0;entryDy=0;" edge="1" parent="1" source="obj-AQHQgSeHbVbX9h_X-34" target="obj-AQHQgSeHbVbX9h_X-11">
          <mxGeometry relative="1" as="geometry" />
        </mxCell>
        <mxCell id="obj-AQHQgSeHbVbX9h_X-34" value="Weather" style="rounded=0;whiteSpace=wrap;html=1;dashed=1;dashPattern=12 12;" vertex="1" parent="1">
          <mxGeometry x="580" y="120" width="120" height="60" as="geometry" />
        </mxCell>
      </root>
    </mxGraphModel>
  </diagram>
</mxfile>
